<svg width="469" height="563" viewBox="0 0 469 563" fill="none" xmlns="http://www.w3.org/2000/svg">
<path d="M342.323 343.421C307.49 403.754 263.86 451.363 221.5 479.573C179.111 507.803 138.142 516.522 108.503 499.41C78.8645 482.298 65.9302 442.458 69.1834 391.633C72.4343 340.843 91.8501 279.254 126.683 218.921C161.516 158.589 205.146 110.98 247.506 82.7694C289.895 54.5396 330.865 45.8211 360.503 62.933C390.142 80.0449 403.076 119.885 399.823 170.71C396.572 221.5 377.156 283.089 342.323 343.421Z" stroke="#121212"/>
<path d="M358 296L361.315 309.117L373.637 303.53L365.448 314.3L377.499 320.45L363.973 320.763L366.678 334.019L358 323.639L349.322 334.019L352.027 320.763L338.501 320.45L350.552 314.3L342.363 303.53L354.685 309.117L358 296Z" fill="#121212" stroke="#121212" stroke-width="3" stroke-linecap="round"/>
</svg>
