<svg width="164" height="189" viewBox="0 0 164 189" fill="none" xmlns="http://www.w3.org/2000/svg">
<path d="M49.1262 134.7L37.8607 143.805L32.7753 140.087L38.229 126.731L40.6506 128.502L36.3038 139.198L37.6761 140.202L46.7046 132.929L49.1262 134.7Z" fill="#F8F8F8"/>
<path d="M36.9978 125.505L25.9125 134.056L24.0598 131.696L28.4939 128.276L27.444 126.939C25.8927 127.748 24.2649 127.985 22.5605 127.65C20.8374 127.312 19.3788 126.383 18.1848 124.862C16.892 123.216 16.3687 121.405 16.615 119.43C16.853 117.445 17.806 115.809 19.4741 114.522C21.1421 113.236 22.9762 112.722 24.9764 112.981C26.9683 113.229 28.6107 114.176 29.9035 115.823C31.0975 117.343 31.6534 118.969 31.5713 120.699C31.4703 122.427 30.8336 123.937 29.661 125.229L30.7109 126.566L35.145 123.146L36.9978 125.505ZM26.6998 123.724C27.7977 122.878 28.4322 121.883 28.6033 120.741C28.7743 119.598 28.4687 118.529 27.6865 117.533C26.9042 116.537 25.9335 115.98 24.7743 115.864C23.6151 115.748 22.4865 116.114 21.3886 116.961C20.3012 117.799 19.6719 118.79 19.5009 119.932C19.3193 121.082 19.6196 122.156 20.4019 123.152C21.1841 124.148 22.1601 124.7 23.3299 124.808C24.4891 124.925 25.6124 124.563 26.6998 123.724Z" fill="#F8F8F8"/>
<path d="M28.1286 109.158L23.1923 111.087L22.6008 109.601L11.0972 110.983L8.76812 105.13L18.1275 98.358L17.536 96.8714L22.4723 94.9419L23.5444 97.6365L21.216 98.5466L24.728 107.374L27.0565 106.463L28.1286 109.158ZM21.5287 106.906L19.1996 101.053L12.1893 106.155L12.8917 107.92L21.5287 106.906Z" fill="#F8F8F8"/>
<path d="M20.2434 94.1881L6.36237 96.009L5.96529 93.0354L13.9965 91.9819L15.7085 91.959L15.6821 91.7608L5.21086 87.3855L4.72113 83.7181L18.6022 81.8972L18.9993 84.8708L10.9681 85.9243L9.25606 85.9472L9.28253 86.1454L19.7537 90.5207L20.2434 94.1881Z" fill="#F8F8F8"/>
<path d="M21.8507 73.0432L16.7043 71.7764L17.0931 70.2244L6.92257 64.7345L8.45376 58.6234L20.034 58.4872L20.4229 56.9352L25.5693 58.2019L24.8644 61.015L22.4369 60.4175L20.1279 69.6326L22.5555 70.2301L21.8507 73.0432ZM17.798 67.4114L19.3292 61.3003L10.6379 61.4266L10.1761 63.2697L17.798 67.4114Z" fill="#F8F8F8"/>
<path d="M23.7117 57.3878L12.9589 47.7648L15.897 42.1919L30.0075 45.4458L28.6085 48.0995L17.3107 45.5141L16.5178 47.018L25.1108 54.734L23.7117 57.3878Z" fill="#F8F8F8"/>
<path d="M24.0807 38.4142C23.0689 37.5458 22.553 36.4442 22.533 35.1093C22.5029 33.7657 23.0361 32.4664 24.1326 31.2113L28.4092 26.3162L39.033 35.434L37.0593 37.6932L33.5686 34.6974L31.5948 36.9566L33.3091 41.9858L31.1379 44.471L29.3833 38.8801C28.5702 39.3243 27.678 39.5249 26.7065 39.4818C25.735 39.4387 24.8597 39.0828 24.0807 38.4142ZM26.1202 36.0796C26.5553 36.453 27.0403 36.597 27.5753 36.5114C28.1104 36.4259 28.6323 36.092 29.141 35.5096L31.4438 32.8738L28.5602 30.399L26.2574 33.0348C25.7486 33.6172 25.4949 34.1812 25.4961 34.727C25.4973 35.2727 25.7054 35.7236 26.1202 36.0796Z" fill="#F8F8F8"/>
<path d="M47.3559 29.2291L43.8472 15.2327L49.4049 12.2658L59.2653 22.8716L56.6187 24.2843L48.7128 15.8092L47.2131 16.6097L50.0024 27.8163L47.3559 29.2291Z" fill="#F8F8F8"/>
<path d="M60.9279 22.3618L57.8434 8.70576L60.7722 8.05591L62.006 13.5183L63.6656 13.1501C63.586 11.4059 64.0592 9.83954 65.0852 8.45101C66.1212 7.04658 67.5829 6.13497 69.4703 5.71618C71.514 5.26273 73.3814 5.57222 75.0725 6.64468C76.7767 7.71424 77.8609 9.27647 78.325 11.3314C78.7892 13.3863 78.4805 15.2575 77.3991 16.9452C76.3307 18.6299 74.7747 19.6991 72.7311 20.1525C70.8437 20.5713 69.1308 20.3709 67.5924 19.5514C66.0641 18.7159 64.9608 17.4926 64.2825 15.8813L62.6229 16.2495L63.8566 21.7119L60.9279 22.3618ZM66.9028 13.8658C67.2083 15.2184 67.8441 16.2177 68.8102 16.8638C69.7763 17.5099 70.8776 17.6957 72.1142 17.4213C73.3508 17.1469 74.267 16.5134 74.863 15.5208C75.4589 14.5281 75.6041 13.3555 75.2986 12.0029C74.996 10.6633 74.3617 9.67047 73.3956 9.02441C72.4266 8.36534 71.3238 8.17299 70.0872 8.44738C68.8506 8.72176 67.9359 9.36178 67.3429 10.3674C66.7469 11.3601 66.6002 12.5262 66.9028 13.8658Z" fill="#F8F8F8"/>
<path d="M79.6024 21.4596L79.9523 16.1712L81.5489 16.2749L85.1821 5.28741L91.4689 5.69598L93.6234 17.0596L95.2201 17.1634L94.8702 22.4518L91.9763 22.2638L92.1413 19.7692L82.6613 19.1531L82.4963 21.6477L79.6024 21.4596ZM84.4428 16.463L90.7295 16.8716L89.0887 8.3472L87.1927 8.22398L84.4428 16.463Z" fill="#F8F8F8"/>
<path d="M96.6189 20.8247L100.758 7.45053L110.804 10.5046L109.976 13.1795L102.8 10.998L101.973 13.6728L107.713 15.418L106.944 17.9018L101.204 16.1566L100.317 19.0225L107.493 21.204L106.665 23.8788L96.6189 20.8247Z" fill="#F8F8F8"/>
<path d="M109.273 25.2056L116.322 13.1099L118.926 14.6004L114.847 21.5987L113.818 22.968L113.991 23.0674L123.872 17.4324L127.083 19.2708L120.034 31.3665L117.431 29.876L121.509 22.8777L122.539 21.5083L122.365 21.409L112.484 27.0439L109.273 25.2056ZM120.963 10.6278L122.872 11.7209C122.47 12.4121 122.644 12.9729 123.396 13.4035C124.149 13.8342 124.726 13.7039 125.129 13.0127L127.038 14.1057C126.568 14.9121 125.917 15.4073 125.084 15.5913C124.27 15.7704 123.389 15.5883 122.44 15.0451C121.491 14.5019 120.886 13.8327 120.624 13.0375C120.38 12.2374 120.493 11.4342 120.963 10.6278Z" fill="#F8F8F8"/>
<path d="M127.926 38.8286L138.711 29.9017L140.644 32.1959L132.016 39.3374L136.462 44.614L134.305 46.3994L127.926 38.8286Z" fill="#F8F8F8"/>
<path d="M135.657 48.8081L148.05 42.2962L153.003 51.555L150.524 52.8573L146.987 46.2439L144.508 47.5463L147.338 52.837L145.036 54.0464L142.206 48.7557L139.551 50.1511L143.088 56.7645L140.609 58.0669L135.657 48.8081Z" fill="#F8F8F8"/>
<path d="M141.142 59.6775L155.639 59.5777L157.316 65.6503L144.79 72.883L143.965 69.8949L146.743 68.312L145.173 62.6249L141.968 62.6656L141.142 59.6775ZM148.061 62.5664L149.259 66.904L154.002 64.1666L153.549 62.5279L148.061 62.5664Z" fill="#F8F8F8"/>
<path d="M144.636 74.5573L158.627 74.0706L158.808 79.1674C158.886 81.3794 158.278 83.2216 156.982 84.6942C155.687 86.1668 154.053 86.9374 152.081 87.006C150.109 87.0746 148.425 86.4194 147.028 85.0405C145.632 83.6615 144.895 81.8661 144.816 79.6541L144.636 74.5573ZM147.54 77.4581L147.615 79.5568C147.664 80.9426 148.082 82.022 148.87 82.7951C149.672 83.581 150.705 83.952 151.971 83.9079C153.237 83.8639 154.236 83.4223 154.966 82.583C155.711 81.7566 156.059 80.6505 156.01 79.2648L155.935 77.1661L147.54 77.4581Z" fill="#F8F8F8"/>
<path d="M148.932 89.49L148.32 92.529C147.904 92.5689 147.519 92.6899 147.165 92.8918C146.369 93.3323 145.857 94.1211 145.628 95.2583C145.286 96.9575 145.638 97.9106 146.684 98.1177C146.946 98.1695 147.2 98.1246 147.446 97.983C147.689 97.8545 147.928 97.6162 148.161 97.2682C148.392 96.9333 148.588 96.5984 148.751 96.2636C148.924 95.9445 149.138 95.5247 149.392 95.0042C149.421 94.9284 149.447 94.8656 149.471 94.8159C149.492 94.7793 149.517 94.723 149.546 94.6472C149.585 94.587 149.616 94.5321 149.64 94.4824C150.842 91.8931 152.43 90.7938 154.405 91.1847C155.582 91.4176 156.48 92.0914 157.099 93.206C157.728 94.3363 157.881 95.7053 157.557 97.313C157.136 99.4044 156.111 100.846 154.482 101.638C153.765 101.959 153.002 102.134 152.193 102.164L152.806 99.1252C153.096 99.1011 153.388 99.0025 153.681 98.8295C154.304 98.4364 154.713 97.7562 154.908 96.7889C155.058 96.0439 155.028 95.4534 154.816 95.0174C154.618 94.584 154.31 94.3259 153.891 94.243C153.132 94.0929 152.383 94.8417 151.643 96.4894C151.449 96.9131 151.328 97.1746 151.281 97.274C151.231 97.3865 151.105 97.6402 150.903 98.0352C150.699 98.4432 150.543 98.7114 150.435 98.8396C150.338 98.9835 150.176 99.2164 149.948 99.5383C149.73 99.8758 149.541 100.103 149.382 100.221C149.219 100.352 149.003 100.513 148.734 100.705C148.474 100.912 148.223 101.045 147.979 101.106C147.736 101.167 147.456 101.206 147.139 101.225C146.833 101.26 146.51 101.243 146.17 101.176C144.954 100.935 144.026 100.242 143.386 99.0961C142.759 97.9527 142.624 96.4987 142.979 94.7342C143.448 92.4076 144.576 90.8571 146.364 90.0828C147.147 89.7077 148.003 89.5101 148.932 89.49Z" fill="#F8F8F8"/>
<path d="M141.065 103.084L153.815 108.867L152.558 111.591L147.549 109.319L144.95 114.948L149.958 117.22L148.701 119.944L135.951 114.16L137.209 111.437L142.4 113.791L144.999 108.162L139.808 105.808L141.065 103.084Z" fill="#F8F8F8"/>
<path d="M134.638 118.588C136.689 118.35 138.521 118.877 140.135 120.168C141.748 121.46 142.649 123.119 142.837 125.148C143.026 127.195 142.431 129.066 141.05 130.762C139.669 132.457 137.953 133.424 135.902 133.661C133.853 133.917 132.022 133.4 130.409 132.108C128.795 130.817 127.893 129.148 127.704 127.101C127.516 125.072 128.113 123.21 129.494 121.515C130.875 119.82 132.59 118.844 134.638 118.588ZM139.895 125.688C139.759 124.504 139.165 123.491 138.114 122.649C137.062 121.808 135.933 121.442 134.726 121.552C133.52 121.681 132.505 122.251 131.68 123.264C130.855 124.278 130.51 125.376 130.646 126.561C130.784 127.764 131.378 128.786 132.43 129.627C133.481 130.469 134.609 130.825 135.815 130.697C137.022 130.587 138.038 130.026 138.863 129.012C139.689 127.999 140.032 126.891 139.895 125.688Z" fill="#F8F8F8"/>
<path d="M123.296 128.448L131.722 139.629L126.498 143.496C125.159 144.488 123.792 144.911 122.397 144.766C120.999 144.64 119.883 144.023 119.049 142.916C118.214 141.808 117.93 140.567 118.196 139.192C118.459 137.836 119.26 136.662 120.6 135.67L123.413 133.588L120.885 130.234L123.296 128.448ZM125.098 135.824L122.366 137.847C121.701 138.339 121.303 138.874 121.172 139.452C121.04 140.031 121.163 140.571 121.54 141.071C121.917 141.571 122.404 141.841 123.001 141.88C123.598 141.919 124.229 141.693 124.893 141.201L127.626 139.178L125.098 135.824Z" fill="#F8F8F8"/>
<path d="M82 187L82 107" stroke="#F8F8F8" stroke-width="2" stroke-linecap="square"/>
<path d="M72 177.567C77.1408 177.567 82 182.094 82 187.567" stroke="#F8F8F8" stroke-width="2" stroke-linecap="square"/>
<path d="M92 177.567C86.8592 177.567 82 182.094 82 187.567" stroke="#F8F8F8" stroke-width="2" stroke-linecap="square"/>
<path d="M82 59L86.3215 70.6785L98 75L86.3215 79.3215L82 91L77.6785 79.3215L66 75L77.6785 70.6785L82 59Z" stroke="#F8F8F8" stroke-width="2" stroke-linecap="round"/>
</svg>
