<svg width="95" height="80" viewBox="0 0 95 80" fill="none" xmlns="http://www.w3.org/2000/svg">
<g clip-path="url(#clip0_155_49)">
<path d="M40.9067 50.0055L61.1157 50.0055L61.1157 31.7019L40.9067 31.7019L40.9067 50.0055Z" fill="#00A8D5"/>
<path d="M42.8118 0H24.5078V20.0747H42.8118V0Z" fill="#00FEBE"/>
<path d="M42.8118 18.5795H24.5078V50.0055H42.8118V18.5795Z" fill="#004C90"/>
<path d="M2.65727 66.7983H7.09243V69.0227H0V58.572H2.65727V66.7983ZM18.1845 60.6621H12.6604V62.7372H17.6475V64.8274H12.6604V66.9326H18.3488V69.0227H10.0031V58.572H18.1845V60.6621ZM28.6505 67.0969H24.0825L23.3209 69.0227H20.5883L25.0975 58.572H27.8301L32.2337 69.0227H29.397L28.6505 67.0969ZM27.8739 65.0821L26.3809 61.2155L24.8578 65.0821H27.8739ZM34.8472 58.572H39.3412C40.1667 58.572 40.9178 58.6989 41.5944 58.9527C42.272 59.2066 42.8569 59.5622 43.349 60.0197C43.8421 60.4781 44.2229 61.0283 44.4914 61.6702C44.7599 62.3121 44.8941 63.0212 44.8941 63.7973C44.8941 64.5735 44.7576 65.2803 44.4845 65.9176C44.2106 66.555 43.8248 67.1047 43.3271 67.5667C42.8295 68.0297 42.2323 68.3881 41.5355 68.642C40.8388 68.8958 40.0722 69.0227 39.2358 69.0227H34.8472V58.572ZM37.5044 60.6922V66.9024H39.4001C39.8083 66.9024 40.1841 66.828 40.5274 66.6792C40.8708 66.5294 41.1643 66.318 41.4081 66.045C41.652 65.7711 41.8437 65.4451 41.9834 65.067C42.1222 64.6881 42.1916 64.2699 42.1916 63.8124C42.1916 63.3449 42.1195 62.9221 41.9752 62.5441C41.8309 62.1651 41.6296 61.8364 41.3712 61.5579C41.1127 61.2794 40.8041 61.0657 40.4452 60.9169C40.0873 60.7671 39.6992 60.6922 39.281 60.6922H37.5044ZM51.9564 58.4528C52.7125 58.4528 53.454 58.5596 54.1808 58.7733C54.9077 58.9879 55.5396 59.2691 56.0765 59.617L55.0766 61.6921C54.7981 61.5332 54.5068 61.3867 54.2027 61.2524C53.8996 61.1182 53.601 61.0036 53.3069 60.9087C53.0138 60.8137 52.7303 60.7393 52.4563 60.6854C52.1824 60.6306 51.9413 60.6032 51.7331 60.6032C51.3843 60.6032 51.1053 60.6653 50.8962 60.7895C50.6871 60.9137 50.5826 61.105 50.5826 61.3634C50.5826 61.6629 50.7195 61.8971 50.9935 62.066C51.2674 62.235 51.6085 62.3815 52.0167 62.5057C52.4248 62.6308 52.8677 62.7628 53.3453 62.9016C53.8229 63.0413 54.2657 63.228 54.6739 63.4618C55.0821 63.6955 55.4227 64.0064 55.6957 64.3945C55.9697 64.7826 56.1067 65.2903 56.1067 65.9176C56.1067 66.4354 55.9971 66.8933 55.7779 67.2914C55.5597 67.6896 55.2638 68.0229 54.8903 68.2913C54.5169 68.5598 54.0763 68.7639 53.5686 68.9036C53.0608 69.0433 52.5134 69.1131 51.9263 69.1131C51.0505 69.1131 50.1922 68.9611 49.3512 68.657C48.5102 68.3539 47.776 67.9484 47.1487 67.4407L48.1787 65.3958C48.4481 65.6341 48.7444 65.8478 49.0676 66.0368C49.3909 66.2258 49.7219 66.3902 50.0607 66.5299C50.3986 66.6696 50.7319 66.7764 51.0606 66.8504C51.3893 66.9253 51.6879 66.9627 51.9564 66.9627C52.3746 66.9627 52.7056 66.8855 52.9494 66.7312C53.1933 66.5769 53.3152 66.3505 53.3152 66.0519C53.3152 65.7432 53.1782 65.5044 52.9042 65.3355C52.6303 65.1666 52.2897 65.0196 51.8824 64.8945C51.4743 64.7703 51.0309 64.6461 50.5524 64.5219C50.0748 64.3977 49.632 64.221 49.2238 63.9918C48.8156 63.7626 48.475 63.4613 48.202 63.0878C47.928 62.7153 47.7911 62.2204 47.7911 61.6031C47.7911 61.1255 47.8906 60.6927 48.0897 60.3046C48.2887 59.9165 48.57 59.5855 48.9334 59.3116C49.2968 59.0376 49.7347 58.8258 50.247 58.676C50.7593 58.5272 51.3291 58.4528 51.9564 58.4528ZM68.8424 69.0227H66.1851V64.9616H61.8554V69.0227H59.1981V58.572H61.8554V62.8714H66.1851V58.572H68.8424V69.0227ZM77.5319 58.4829C78.3382 58.4829 79.087 58.6172 79.7782 58.8856C80.4704 59.1541 81.0704 59.5248 81.5781 59.9978C82.0858 60.4708 82.4812 61.0306 82.7642 61.6771C83.0482 62.3245 83.1902 63.0262 83.1902 63.7823C83.1902 64.5393 83.0482 65.246 82.7642 65.9026C82.4812 66.5591 82.0858 67.1266 81.5781 67.6051C81.0704 68.0827 80.4704 68.4584 79.7782 68.7324C79.087 69.0054 78.3382 69.1419 77.5319 69.1419C76.7256 69.1419 75.9791 69.0054 75.2924 68.7324C74.6057 68.4584 74.0085 68.0827 73.5008 67.6051C72.9931 67.1266 72.5972 66.5618 72.3132 65.9108C72.0302 65.2588 71.8886 64.5493 71.8886 63.7823C71.8886 63.0162 72.0302 62.3094 72.3132 61.662C72.5972 61.0155 72.9931 60.4585 73.5008 59.991C74.0085 59.5225 74.6057 59.1541 75.2924 58.8856C75.9791 58.6172 76.7256 58.4829 77.5319 58.4829ZM77.5607 60.7073C77.1634 60.7073 76.7854 60.7845 76.4265 60.9388C76.0686 61.0931 75.7549 61.3095 75.4855 61.588C75.217 61.8665 75.0034 62.1948 74.8445 62.5728C74.6847 62.9518 74.6048 63.36 74.6048 63.7973C74.6048 64.2356 74.6847 64.6461 74.8445 65.0287C75.0034 65.4122 75.217 65.7432 75.4855 66.0217C75.7549 66.3011 76.0686 66.5203 76.4265 66.6792C76.7854 66.8381 77.1634 66.9175 77.5607 66.9175C77.9688 66.9175 78.3473 66.8381 78.6962 66.6792C79.0441 66.5203 79.35 66.3011 79.6139 66.0217C79.8778 65.7432 80.0846 65.4122 80.2344 65.0287C80.3832 64.6461 80.4576 64.2356 80.4576 63.7973C80.4576 63.36 80.3832 62.9518 80.2344 62.5728C80.0846 62.1948 79.8778 61.8665 79.6139 61.588C79.35 61.3095 79.0441 61.0931 78.6962 60.9388C78.3473 60.7845 77.9688 60.7073 77.5607 60.7073ZM86.2351 58.572H90.7895C92.1327 58.572 93.1705 58.8856 93.9028 59.5129C94.6343 60.1403 95 61.0411 95 62.2153C95 63.449 94.6343 64.4018 93.9028 65.0739C93.1705 65.746 92.1327 66.082 90.7895 66.082H88.8938V69.0227H86.2351V58.572ZM88.8938 60.6621V63.9918H90.6552C91.2424 63.9918 91.6953 63.8498 92.014 63.5659C92.3327 63.2828 92.492 62.8623 92.492 62.3044C92.492 61.7574 92.3327 61.347 92.014 61.073C91.6953 60.7991 91.2424 60.6621 90.6552 60.6621H88.8938Z" fill="#004C90"/>
<path d="M5.64995 74.3911L5.58146 76.3772C5.53352 77.7263 5.35545 78.4386 4.77332 78.4386C4.69799 78.4386 4.63635 78.4317 4.56786 78.4112L4.50623 79.185C4.69114 79.2261 4.84181 79.2535 4.99248 79.2535C6.02662 79.2535 6.30741 78.2331 6.36905 76.3429L6.41014 75.1444H8.30036V79.185H9.17699V74.3911H5.64995ZM11.4507 79.185H12.3068V77.7195H12.9232C13.0807 78.6235 13.8204 79.233 14.7929 79.233C15.8955 79.233 16.6968 78.4522 16.6968 77.3565C16.6968 76.2539 15.8955 75.4869 14.7929 75.4869C13.8409 75.4869 13.1081 76.069 12.9369 76.9456H12.3068V75.5279H11.4507V79.185ZM13.745 77.3565C13.745 76.6511 14.197 76.2128 14.7929 76.2128C15.3887 76.2128 15.8475 76.6511 15.8475 77.3565C15.8475 78.0619 15.3887 78.507 14.7929 78.507C14.197 78.507 13.745 78.0619 13.745 77.3565ZM18.8404 80V79.185H21.662V80H22.4633V78.4591H21.9223V75.5279H18.9089L18.8609 76.7812C18.8198 77.6373 18.7308 78.4385 18.2172 78.4591H18.046V80H18.8404ZM19.6417 76.8429L19.6622 76.2539H21.0662V78.4591H19.265C19.5595 78.1783 19.6143 77.5277 19.6417 76.8429ZM24.2508 75.5279V79.185H25.0384L27.0519 76.7744V79.185H27.908V75.5279H27.1272L25.1069 77.9386V75.5279H24.2508ZM33.2704 80V79.185H36.0921V80H36.8934V78.4591H36.3523V75.5279H33.3389L33.291 76.7812C33.2499 77.6373 33.1609 78.4385 32.6472 78.4591H32.476V80H33.2704ZM34.0717 76.8429L34.0923 76.2539H35.4962V78.4591H33.6951C33.9896 78.1783 34.0443 77.5277 34.0717 76.8429ZM39.037 75.5279L38.9753 76.9387C38.9343 77.6989 38.9137 78.4796 38.3521 78.4796C38.3042 78.4796 38.2494 78.4728 38.1878 78.4591L38.1467 79.1782C38.3247 79.2261 38.4822 79.2535 38.6192 79.2535C39.4821 79.2535 39.6739 78.281 39.7355 76.9798L39.7698 76.2539H41.1395V79.185H41.9956V75.5279H39.037ZM43.8584 79.185H44.7761L45.5226 78.0824H46.4883V79.185H47.2553V75.5279H45.5774C44.557 75.5279 43.9064 75.9868 43.9064 76.8429C43.9064 77.4044 44.2008 77.7879 44.7213 77.966L43.8584 79.185ZM45.6048 76.247H46.4883V77.4866H45.5774C45.0501 77.4866 44.7761 77.2949 44.7761 76.8702C44.7761 76.4319 45.0775 76.247 45.6048 76.247ZM53.0013 74.3911L52.9328 76.3772C52.8849 77.7263 52.7068 78.4386 52.1247 78.4386C52.0494 78.4386 51.9877 78.4317 51.9192 78.4112L51.8576 79.185C52.0425 79.2261 52.1932 79.2535 52.3439 79.2535C53.378 79.2535 53.6588 78.2331 53.7204 76.3429L53.7615 75.1444H55.6517V79.185H56.5284V74.3911H53.0013ZM58.8021 79.185H59.6582V77.7195H60.2746C60.4321 78.6235 61.1717 79.233 62.1442 79.233C63.2469 79.233 64.0482 78.4522 64.0482 77.3565C64.0482 76.2539 63.2469 75.4869 62.1442 75.4869C61.1923 75.4869 60.4595 76.069 60.2883 76.9456H59.6582V75.5279H58.8021V79.185ZM61.0964 77.3565C61.0964 76.6511 61.5484 76.2128 62.1442 76.2128C62.7401 76.2128 63.1989 76.6511 63.1989 77.3565C63.1989 78.0619 62.7401 78.507 62.1442 78.507C61.5484 78.507 61.0964 78.0619 61.0964 77.3565ZM66.1918 80V79.185H69.0134V80H69.8147V78.4591H69.2737V75.5279H66.2603L66.2123 76.7812C66.1712 77.6373 66.0822 78.4385 65.5686 78.4591H65.3973V80H66.1918ZM66.9931 76.8429L67.0136 76.2539H68.4176V78.4591H66.6164C66.9109 78.1783 66.9657 77.5277 66.9931 76.8429ZM75.0265 77.377C75.0265 76.2333 74.2458 75.4869 73.1774 75.4869C72.0884 75.4869 71.2872 76.2676 71.2872 77.3565C71.2872 78.4454 72.0816 79.233 73.3075 79.233C73.9376 79.233 74.4512 79.0275 74.78 78.6372L74.3211 78.1098C74.0608 78.3769 73.739 78.507 73.328 78.507C72.6911 78.507 72.246 78.1646 72.1432 77.6304H75.0128C75.0197 77.5482 75.0265 77.4455 75.0265 77.377ZM73.1774 76.1717C73.739 76.1717 74.143 76.5347 74.2115 77.062H72.1364C72.2186 76.5278 72.6226 76.1717 73.1774 76.1717ZM76.9852 79.185H77.7728L79.7863 76.7744V79.185H80.6424V75.5279H79.8616L77.8413 77.9386V75.5279H76.9852V79.185ZM77.6153 74.0898C77.6221 74.7541 78.0262 75.0965 78.759 75.0965C79.4918 75.0965 79.8959 74.7541 79.9096 74.0898H79.3274C79.3206 74.4185 79.1014 74.6239 78.7522 74.6239C78.396 74.6239 78.1906 74.4185 78.1837 74.0898H77.6153Z" fill="#004C90"/>
</g>
<defs>
<clipPath id="clip0_155_49">
<rect width="95" height="80" fill="white"/>
</clipPath>
</defs>
</svg>
