<svg width="263" height="315" viewBox="0 0 263 315" fill="none" xmlns="http://www.w3.org/2000/svg">
<path d="M191.099 122.444C210.551 156.134 221.387 190.518 223.201 218.859C225.017 247.235 217.789 269.382 201.339 278.879C184.889 288.377 162.095 283.563 138.429 267.802C114.792 252.061 90.433 225.485 70.9816 191.794C51.5302 158.103 40.6938 123.719 38.8798 95.3785C37.0636 67.0027 44.2922 44.8553 60.7419 35.358C77.1917 25.8608 99.9862 30.6743 123.652 46.4352C147.289 62.1766 171.648 88.7529 191.099 122.444Z" stroke="#121212"/>
<path d="M48 125L50.6517 135.494L60.5093 131.024L53.9582 139.64L63.5988 144.56L52.7781 144.81L54.9421 155.416L48 147.111L41.0579 155.416L43.2219 144.81L32.4012 144.56L42.0418 139.64L35.4907 131.024L45.3483 135.494L48 125Z" fill="#121212" stroke="#121212" stroke-width="3" stroke-linecap="round"/>
</svg>
