<svg width="541" height="334" viewBox="0 0 541 334" fill="none" xmlns="http://www.w3.org/2000/svg">
<path d="M248.751 289.556C317.358 301.653 381.874 298.833 430.713 284.517C479.585 270.191 512.599 244.41 518.542 210.706C524.485 177.003 502.279 141.486 461.254 111.308C420.257 81.1514 360.597 56.4359 291.989 44.3386C223.382 32.2412 158.866 35.0611 110.027 49.3775C61.1548 63.7037 28.1414 89.484 22.1985 123.188C16.2556 156.892 38.4607 192.408 79.4859 222.586C120.483 252.743 180.143 277.458 248.751 289.556Z" stroke="#121212"/>
<path d="M40 167L36.6854 180.117L24.3634 174.53L32.5522 185.3L20.5014 191.45L34.0273 191.763L31.3223 205.019L40 194.639L48.6777 205.019L45.9727 191.763L59.4986 191.45L47.4478 185.3L55.6366 174.53L43.3146 180.117L40 167Z" fill="#121212" stroke="#121212" stroke-width="3" stroke-linecap="round"/>
</svg>
