<svg width="259" height="258" viewBox="0 0 259 258" fill="none" xmlns="http://www.w3.org/2000/svg">
<path d="M181.829 124.548L195.69 122.577L196.112 125.547L190.667 126.321L191.54 132.46L196.985 131.685L197.407 134.655L183.547 136.626L183.124 133.656L188.767 132.854L187.895 126.715L182.251 127.518L181.829 124.548Z" fill="#F8F8F8"/>
<path d="M183.626 143.06L196.866 148.923L195.872 155.144L181.464 156.589L181.953 153.527L185.14 153.227L186.071 147.401L183.136 146.121L183.626 143.06ZM188.726 148.534L188.016 152.977L193.47 152.431L193.739 150.752L188.726 148.534Z" fill="#F8F8F8"/>
<path d="M187.876 166.414L192.145 168.52L190.819 171.21L186.693 169.176C186.011 168.84 185.361 168.787 184.742 169.017C184.123 169.247 183.628 169.738 183.257 170.492C182.879 171.257 182.698 172 182.714 172.722C182.71 172.972 182.747 173.273 182.827 173.625L188.298 176.323L186.971 179.013L174.415 172.821L175.741 170.131L180.405 172.43C180.361 172.037 180.353 171.676 180.381 171.348C180.436 170.483 180.691 169.591 181.145 168.67C181.829 167.283 182.769 166.386 183.965 165.98C185.174 165.58 186.477 165.724 187.876 166.414Z" fill="#F8F8F8"/>
<path d="M170.497 178.895L178.122 191.206L173.792 195.781L161.08 188.846L163.211 186.594L166.012 188.144L170.067 183.859L168.366 181.147L170.497 178.895ZM171.62 186.292L168.527 189.56L173.339 192.186L174.507 190.952L171.62 186.292Z" fill="#F8F8F8"/>
<path d="M162.577 201.721L163.99 204.139L153.628 210.191L152.215 207.773L156.101 205.504L150.452 195.832L153.043 194.319L158.692 203.99L162.577 201.721Z" fill="#F8F8F8"/>
<path d="M140.151 200.713L143.538 214.297L140.627 215.023L139.563 210.753L136.264 211.576C134.595 211.992 133.165 211.881 131.976 211.243C130.773 210.608 130.004 209.618 129.669 208.273C129.333 206.927 129.548 205.692 130.312 204.567C131.063 203.446 132.273 202.677 133.942 202.261L140.151 200.713ZM137.918 204.155L134.522 205.002C133.758 205.192 133.226 205.51 132.925 205.956C132.611 206.406 132.528 206.928 132.677 207.523C132.825 208.118 133.143 208.54 133.632 208.79C134.107 209.042 134.726 209.073 135.489 208.883L138.885 208.036L137.918 204.155Z" fill="#F8F8F8"/>
<path d="M121.708 204.245L120.934 218.223L117.938 218.057L118.243 212.565L112.052 212.222L111.748 217.714L108.752 217.548L109.527 203.569L112.523 203.735L112.207 209.427L118.398 209.77L118.713 204.078L121.708 204.245Z" fill="#F8F8F8"/>
<path d="M103.202 202.39L94.8657 214.23L88.9587 212.04L90.3567 197.627L93.2633 198.705L92.9357 201.89L98.4677 203.941L100.296 201.312L103.202 202.39ZM96.8379 206.323L92.6186 204.758L92.0887 210.214L93.6827 210.805L96.8379 206.323Z" fill="#F8F8F8"/>
<path d="M79.4674 201.997L76.5687 205.772L74.1891 203.945L76.9904 200.297C77.4532 199.694 77.6323 199.066 77.5276 198.415C77.4229 197.763 77.0375 197.181 76.3712 196.669C75.6943 196.15 75.0006 195.827 74.2899 195.702C74.0452 195.649 73.7428 195.626 73.3826 195.636L69.6679 200.474L67.2883 198.647L75.8139 187.543L78.1935 189.369L75.0269 193.494C75.4212 193.528 75.7765 193.591 76.0928 193.682C76.9303 193.905 77.7563 194.329 78.5706 194.954C79.7974 195.896 80.4931 196.993 80.6577 198.246C80.8141 199.509 80.4174 200.759 79.4674 201.997Z" fill="#F8F8F8"/>
<path d="M70.6223 182.513L57.0595 187.587L53.4178 182.446L62.703 171.334L64.495 173.864L62.4278 176.308L65.8383 181.123L68.8304 179.984L70.6223 182.513ZM63.1489 182.17L60.5476 178.498L57.0321 182.704L58.0148 184.091L63.1489 182.17Z" fill="#F8F8F8"/>
<path d="M49.7834 170.288L47.1364 171.2L43.2249 159.856L45.872 158.943L47.3388 163.197L57.9271 159.547L58.905 162.383L48.3167 166.033L49.7834 170.288Z" fill="#F8F8F8"/>
<path d="M55.1535 148.491L41.1694 149.158L41.0264 146.162L45.4214 145.952L45.2593 142.556C45.1773 140.838 45.5653 139.458 46.4232 138.416C47.2805 137.36 48.4017 136.8 49.7868 136.733C51.1719 136.667 52.3414 137.119 53.2954 138.088C54.2487 139.043 54.7664 140.38 54.8484 142.098L55.1535 148.491ZM52.2136 145.628L52.0468 142.132C52.0093 141.346 51.8012 140.762 51.4225 140.38C51.0432 139.984 50.5473 139.801 49.9346 139.83C49.322 139.859 48.8457 140.089 48.5058 140.519C48.1653 140.936 48.0138 141.537 48.0513 142.323L48.2182 145.819L52.2136 145.628Z" fill="#F8F8F8"/>
<path d="M55.2923 129.713L41.7345 126.222L42.4825 123.317L47.8088 124.689L49.3547 118.684L44.0284 117.313L44.7764 114.408L58.3342 117.898L57.5862 120.804L52.0662 119.382L50.5203 125.387L56.0403 126.808L55.2923 129.713Z" fill="#F8F8F8"/>
<path d="M60.7267 111.926L50.743 101.437L54.0451 96.0716L67.9073 100.258L66.2825 102.898L63.2231 101.955L60.1307 106.98L62.3515 109.286L60.7267 111.926ZM58.113 104.916L60.4716 101.084L55.2242 99.4979L54.3331 100.946L58.113 104.916Z" fill="#F8F8F8"/>
<path d="M65.7493 88.7252L62.6127 85.1447L64.8693 83.1679L67.9004 86.628C68.4012 87.1997 68.9815 87.4979 69.6413 87.5226C70.301 87.5473 70.9469 87.2829 71.5787 86.7294C72.2206 86.1671 72.6724 85.5497 72.9341 84.8772C73.0343 84.6476 73.1151 84.3553 73.1763 84.0003L69.1568 79.412L71.4134 77.4351L80.6386 87.9658L78.382 89.9427L74.9555 86.0313C74.8453 86.4114 74.7144 86.7476 74.5628 87.0399C74.1807 87.8178 73.6036 88.545 72.8313 89.2215C71.6679 90.2407 70.4559 90.7086 69.1953 90.6253C67.9259 90.532 66.7772 89.8986 65.7493 88.7252Z" fill="#F8F8F8"/>
<path d="M86.5851 83.8567L84.2589 69.5641L90.0121 66.9969L99.096 78.2739L96.2651 79.5372L94.2712 77.0323L88.8833 79.4365L89.416 82.5935L86.5851 83.8567ZM88.3816 76.5943L92.491 74.7606L89.0527 70.4911L87.5003 71.1838L88.3816 76.5943Z" fill="#F8F8F8"/>
<path d="M102.646 65.8076L102.268 63.0332L114.158 61.4134L114.536 64.1878L110.078 64.7952L111.589 75.8927L108.617 76.2977L107.105 65.2002L102.646 65.8076Z" fill="#F8F8F8"/>
<path d="M122.974 75.3322L125.051 61.4872L128.018 61.9323L127.365 66.2836L130.728 66.7881C132.429 67.0433 133.706 67.6934 134.561 68.7384C135.428 69.7854 135.759 70.9945 135.553 72.3659C135.348 73.7372 134.676 74.796 133.54 75.5422C132.416 76.2905 131.004 76.537 129.303 76.2818L122.974 75.3322ZM126.356 73.0083L129.817 73.5276C130.595 73.6444 131.209 73.5544 131.658 73.2577C132.12 72.963 132.397 72.5124 132.488 71.9059C132.579 71.2993 132.447 70.7874 132.091 70.3701C131.749 69.9547 131.189 69.6886 130.411 69.5719L126.95 69.0526L126.356 73.0083Z" fill="#F8F8F8"/>
<path d="M193.246 64.7532L136.678 121.322" stroke="#F8F8F8" stroke-width="2" stroke-linecap="square"/>
<path d="M199.304 72.8377C195.669 69.2025 195.434 62.5652 199.304 58.6955" stroke="#F8F8F8" stroke-width="2" stroke-linecap="square"/>
<path d="M185.162 58.6955C188.797 62.3307 195.434 62.5652 199.304 58.6955" stroke="#F8F8F8" stroke-width="2" stroke-linecap="square"/>
<path d="M102.737 155.263L107.939 143.949L102.737 132.636L114.05 137.838L125.364 132.636L120.162 143.949L125.364 155.263L114.05 150.061L102.737 155.263Z" stroke="#F8F8F8" stroke-width="2" stroke-linecap="round"/>
</svg>
